<svg width="24" height="25" viewBox="0 0 24 25" fill="none" xmlns="http://www.w3.org/2000/svg">
    <path d="M15.0001 4.3999V7.9999C15.0001 8.66264 15.5373 9.1999 16.2001 9.1999H19.8001M8.40008 9.1999H10.8001M8.40008 12.7999H15.6001M8.40008 16.3999H15.6001M18.0001 6.1999C17.466 5.72204 16.9118 5.15528 16.5619 4.78718C16.3291 4.54224 16.0074 4.3999 15.6695 4.3999H6.5998C5.27432 4.3999 4.19981 5.47441 4.1998 6.79989L4.19971 21.1998C4.1997 22.5253 5.27421 23.5998 6.5997 23.5998L17.3997 23.5999C18.7252 23.5999 19.7997 22.5254 19.7998 21.2L19.8001 8.47773C19.8001 8.1709 19.683 7.87594 19.4701 7.65503C19.0763 7.24655 18.4187 6.57442 18.0001 6.1999Z" stroke="currentColor" stroke-linecap="round" stroke-linejoin="round"/>
</svg>
